# xmcd
#
# Track frame offsets: 
#        150
#        24473
#        35902
#        59076
#        74761
#        86808
#        125565
#        147523
#        164699
#        183636
#        207478
#        232188
#        247300
#        264168
#        284644
#        296503
#
# Disc length: 4179 seconds
#
# Revision: 14
# Processed by: cddbd v1.5.2PL0 Copyright (c) Steve Scherf et al.
# Submitted via: ExactAudioCopyFreeDBPlugin 1.0
#
DISCID=1b105110
DTITLE=B.B. King - 1999 - His Definitive Greatest Hits Cd 1
DYEAR=1999
DGENRE=Blues
TTITLE0=The Thrill Is Gone
TTITLE1=Paying The Cost To Be The Boss
TTITLE2=Don't Answer The Door [Parts One and Two]
TTITLE3=I Like To Live The Love
TTITLE4=How Blue Can You Get
TTITLE5=Why I Sing The Blues
TTITLE6=Chains And Things
TTITLE7=To Know You Is To Love You
TTITLE8=When Love Comes To Town
TTITLE9=Playin' With My Friends
TTITLE10=Never Make Your Move Too Soon
TTITLE11=Better Not Look Down
TTITLE12=There Must Be A Better World Somewhere
TTITLE13=Hummingbird
TTITLE14=Everyday I Have The Blues [Live]
TTITLE15=Sweet Little Angel [Live]
EXTD=CD 1999 - CD 1/2 - digitally remastered\nMCA Records MCD 11921 [1
EXTD=11 921-2]\n
EXTT0=
EXTT1=
EXTT2=
EXTT3=
EXTT4=
EXTT5=
EXTT6=
EXTT7=
EXTT8=feat: U2
EXTT9=feat: Robert Cray
EXTT10=
EXTT11=
EXTT12=
EXTT13=
EXTT14=
EXTT15=
PLAYORDER=
